<?xml version="1.0" encoding="utf-8"?>
<!-- Generator: Adobe Illustrator 24.1.0, SVG Export Plug-In . SVG Version: 6.00 Build 0)  -->
<svg version="1.1" id="Layer_1" xmlns="http://www.w3.org/2000/svg" xmlns:xlink="http://www.w3.org/1999/xlink" x="0px" y="0px"
	 viewBox="0 0 400 350" style="enable-background:new 0 0 400 350;" xml:space="preserve">
<style type="text/css">
	.st0{fill:#FFFFFF;}
</style>
<g id="Layer_2_1_">
	<g id="Layer_1-2">
		<path class="st0" d="M398.7966614,295.7432861v12.555603c-6.7270813-3.3813477-14.132019-5.1968079-21.6602478-5.3104248
			c-6.8051147,0-12.0473022,1.7015076-15.7265015,5.1045837c-3.646698,3.3251953-5.6619568,8.0754089-5.5187988,13.0084534
			c-0.1484375,4.7209778,1.8876038,9.2468262,5.5187988,12.2674561c3.6787415,3.1286011,8.5198059,4.6929016,14.5231628,4.6929321
			c3.302002-0.0254211,6.5639343-0.7258606,9.5852661-2.0582886v-6.7100525h-8.3819275v-10.5385132H400v23.5057678
			c-2.2964783,2.2782593-5.7889709,4.1376343-10.477417,5.5780029c-4.5062866,1.4126282-9.1990051,2.1411133-13.9214783,2.1611938
			c-10.0974731,0-18.3895264-2.7649841-24.8760681-8.2949524c-11.7200623-10.0925903-13.0393982-27.7752075-2.9468079-39.4952698
			c0.9077148-1.0541077,1.8927002-2.039093,2.9468079-2.9468079c6.4867859-5.5020752,14.8894653-8.2533264,25.2080078-8.2537842
			C383.8108215,290.8741455,391.6202087,292.4911499,398.7966614,295.7432861z"/>
		<path class="st0" d="M335.8977661,291.0091858V350h-12.5098877l-32.8207703-37.7929993V350h-14.8122864v-58.9908142h13.5825195
			l31.7481689,36.061676v-36.061676H335.8977661z"/>
		<path class="st0" d="M270.6581116,291.0091858V350h-14.8122864v-58.9908142H270.6581116z"/>
		<path class="st0" d="M250.7490845,339.1900024V350h-45.3306732v-58.9908142h14.8122864v48.1808167H250.7490845z"/>
		<path class="st0" d="M173.9113922,291.0091858L200.3216858,350H184.394043l-4.8994598-11.6546021h-26.6284637L148.4261932,350
			h-15.6961975l24.018692-58.9907837L173.9113922,291.0091858z M175.16362,328.0420532l-9.6380005-22.9291382l-8.734314,22.9291382
			H175.16362z"/>
		<path class="st0" d="M82.8024368,291.0091858h25.7086639c6.1292191,0,10.9460526,1.4627686,14.4504929,4.3882751
			c3.5042038,2.9255676,5.256424,6.3852844,5.2566528,10.3791809c0,5.1199951-2.7099075,9.0440063-8.1297302,11.7720642
			c3.6629791,0.811615,6.9594116,2.8003845,9.385376,5.6623535c2.1610107,2.6758423,3.3134766,6.0257263,3.2561493,9.4647217
			c0.1609344,4.7502136-1.7866821,9.3285217-5.3205109,12.5069885c-3.5474472,3.2119141-8.768631,4.817688-15.6635284,4.8172302
			H82.8024368V291.0091858z M97.6147156,301.8191833v12.625824h7.7466507
			c2.0215073,0.1227417,4.0142746-0.5261841,5.575882-1.8157349c1.307373-1.1502991,2.0396042-2.8195496,2.0005112-4.5604858
			c0.0378723-1.7164612-0.6964035-3.3593445-2.0005112-4.4760132c-1.5736237-1.2635803-3.5614319-1.8958435-5.575882-1.7735291
			L97.6147156,301.8191833z M97.6147156,325.2550354v13.934967h8.3425369c3.9438095,0,6.7814178-0.5419006,8.5128098-1.6257324
			c1.7304764-1.083374,2.5959473-2.9624634,2.5963974-5.6372681c0.0581131-1.9393311-0.8714371-3.7757568-2.4687119-4.8771973
			c-1.9523163-1.2846069-4.263382-1.913269-6.5974197-1.7946472L97.6147156,325.2550354z"/>
		<path class="st0" d="M72.4042282,296.657196c-3.5332108-3.7477417-8.5188522-5.6480103-14.8186188-5.6480103
			c-3.0386086,0.0173645-6.0476837,0.5977478-8.8747711,1.7117615c-2.3916626,0.8663025-4.5719948,2.230835-6.3966217,4.0032043
			c-3.8091202-3.793335-9.3123016-5.7149963-16.3751793-5.7149963c-5.0653076-0.140686-9.9640827,1.8155518-13.5391798,5.4066162
			l-2.2942705-4.3552551H0V350h14.4124899v-41.072998c0.9664621-1.4554138,2.2418528-2.6798706,3.7354002-3.5862732
			c1.3974686-1.0136719,3.0561028-1.6057434,4.7795811-1.7061462c2.3626366-0.1520691,4.6886139,0.6427002,6.4642105,2.2087097
			c1.5634174,1.5986328,2.3818893,3.7814026,2.2550011,6.0138245V350h14.4123764v-41.2659912
			c0.7924461-1.4402771,1.9493179-2.6470947,3.3548088-3.4996948c1.4914742-1.0201721,3.2512207-1.5766907,5.0580711-1.5996704
			c5.935791,0,8.8213005,3.3602295,8.8213005,10.2726746V350h14.4124718v-37.9851685
			C77.7057114,305.5570984,75.9219971,300.3901367,72.4042282,296.657196z"/>
		<path class="st0" d="M206.6666565,264.553833V34.7637405L70,0v264.553833H206.6666565z M200,257.9400024H76.6666565V8.5236397
			l121.6774902,30.9519997L200,39.8968582V257.9400024z"/>
		<path class="st0" d="M200,33.0690689V264.553833h130V0L200,33.0690689z M303.3333435,148.8115234
			c-7.3054504-0.0581207-13.1805725-6.0274658-13.122467-13.3329315c0.058136-7.3054504,6.0274963-13.1805725,13.3329468-13.1224518
			c7.2643738,0.0577927,13.1228638,5.9630737,13.1228638,13.2276917
			C316.6373901,142.9184113,310.6679382,148.8405762,303.3333435,148.8115234z"/>
		<rect y="257.9399719" class="st0" width="399.9999695" height="13.2276917"/>
	</g>
</g>
</svg>
